<svg width="500" height="500" viewBox="0 0 500 500" fill="none" xmlns="http://www.w3.org/2000/svg">
<rect width="500" height="500" fill="white"/>
<path d="M130.691 412.188C114.342 412.188 99.6846 410.356 86.7182 406.691C73.7518 403.027 62.6177 397.812 53.3157 391.047C44.2956 384.282 37.1077 376.248 31.752 366.946C26.6782 357.363 23.7185 346.933 22.8728 335.658H85.4498C87.4229 346.369 92.2149 354.544 99.8256 360.181C107.718 365.819 118.148 368.638 131.114 368.638C142.953 368.638 152.114 366.383 158.597 361.873C165.08 357.363 168.322 351.02 168.322 342.846C168.322 337.772 166.772 333.685 163.671 330.584C160.57 327.484 156.342 324.947 150.986 322.973C145.631 321 139.429 319.45 132.382 318.322C125.617 316.913 118.289 315.504 110.396 314.094C100.248 312.121 90.3827 309.866 80.7988 307.329C71.2149 304.792 62.6177 300.987 55.0069 295.913C47.3962 290.839 41.1949 284.215 36.403 276.041C31.8929 267.866 29.6379 257.155 29.6379 243.907C29.6379 232.35 32.0339 222.202 36.8258 213.464C41.8996 204.726 48.6647 197.397 57.121 191.477C65.5774 185.558 75.5841 181.189 87.1411 178.37C98.6981 175.269 111.101 173.719 124.349 173.719C155.637 173.719 179.315 179.92 195.382 192.323C211.449 204.444 221.033 220.37 224.134 240.101H162.403C158.174 224.034 145.49 216.001 124.349 216.001C114.201 216.001 106.027 217.974 99.8256 221.92C93.9061 225.866 90.9464 231.504 90.9464 238.833C90.9464 243.061 92.3558 246.584 95.1746 249.403C97.9934 251.94 101.94 254.054 107.013 255.746C112.087 257.437 118.007 258.846 124.772 259.974C131.537 261.101 138.725 262.37 146.335 263.779C156.483 265.47 166.631 267.725 176.778 270.544C186.926 273.081 196.087 277.027 204.261 282.383C212.436 287.739 219.06 294.927 224.134 303.947C229.49 312.685 232.167 324.101 232.167 338.195C232.167 350.316 229.63 361.027 224.557 370.329C219.483 379.631 212.436 387.383 203.416 393.584C194.396 399.785 183.684 404.436 171.282 407.537C158.879 410.638 145.349 412.188 130.691 412.188ZM309.569 172.873C309.569 178.511 309.428 184.853 309.147 191.9C308.865 198.947 308.583 205.289 308.301 210.927H309.569C318.026 198.806 328.032 189.363 339.589 182.598C351.428 175.833 365.663 172.451 382.294 172.451C406.254 172.451 424.998 178.793 438.529 191.477C452.059 204.162 458.824 222.484 458.824 246.444V405H419.925V251.095C419.925 236.437 415.415 225.162 406.394 217.269C397.656 209.377 385.535 205.43 370.032 205.43C361.294 205.43 353.12 206.981 345.509 210.081C338.18 212.9 331.838 216.987 326.482 222.343C321.126 227.699 316.898 234.182 313.798 241.793C310.979 249.403 309.569 257.719 309.569 266.739V405H270.247V90.424H309.569V172.873Z" fill="black"/>
</svg>
